<svg width="330" height="34" viewBox="0 0 330 34" fill="none" xmlns="http://www.w3.org/2000/svg">
<rect width="159" height="34" rx="16.8715" transform="matrix(-1 0 0 1 330 0)" fill="#1195BF"/>
<path d="M164.288 17.2567L192.511 33.1235L193.974 2.05305L164.288 17.2567Z" fill="#79795E"/>
<rect x="76" width="133" height="34" rx="16.8715" fill="#6594A3"/>
<path d="M229.679 16.2563L200 32L197.5 0.99965L229.679 16.2563Z" fill="#6594A3"/>
<rect width="109" height="34" rx="16.8715" fill="#79795E"/>
<path d="M127.498 16.2567L99.2743 32.1235L97.8121 1.05305L127.498 16.2567Z" fill="#79795E"/>
<path d="M47.6891 21.326C47.9411 21.326 48.1451 21.404 48.3011 21.56C48.4691 21.716 48.5531 21.92 48.5531 22.172C48.5531 22.412 48.4691 22.61 48.3011 22.766C48.1451 22.922 47.9411 23 47.6891 23H41.6051C41.3531 23 41.1431 22.916 40.9751 22.748C40.8191 22.58 40.7411 22.376 40.7411 22.136V11.264C40.7411 11.024 40.8251 10.82 40.9931 10.652C41.1611 10.484 41.3771 10.4 41.6411 10.4C41.8811 10.4 42.0851 10.484 42.2531 10.652C42.4331 10.82 42.5231 11.024 42.5231 11.264V21.326H47.6891ZM59.3496 18.284C59.3496 19.22 59.1396 20.06 58.7196 20.804C58.2996 21.548 57.7236 22.13 56.9916 22.55C56.2716 22.97 55.4736 23.18 54.5976 23.18C53.7216 23.18 52.9176 22.97 52.1856 22.55C51.4656 22.13 50.8956 21.548 50.4756 20.804C50.0556 20.06 49.8456 19.22 49.8456 18.284C49.8456 17.348 50.0556 16.502 50.4756 15.746C50.8956 14.99 51.4656 14.402 52.1856 13.982C52.9176 13.562 53.7216 13.352 54.5976 13.352C55.4736 13.352 56.2716 13.562 56.9916 13.982C57.7236 14.402 58.2996 14.99 58.7196 15.746C59.1396 16.502 59.3496 17.348 59.3496 18.284ZM57.6396 18.284C57.6396 17.636 57.5016 17.06 57.2256 16.556C56.9616 16.04 56.5956 15.644 56.1276 15.368C55.6716 15.08 55.1616 14.936 54.5976 14.936C54.0336 14.936 53.5176 15.08 53.0496 15.368C52.5936 15.644 52.2276 16.04 51.9516 16.556C51.6876 17.06 51.5556 17.636 51.5556 18.284C51.5556 18.92 51.6876 19.49 51.9516 19.994C52.2276 20.498 52.5936 20.894 53.0496 21.182C53.5176 21.458 54.0336 21.596 54.5976 21.596C55.1616 21.596 55.6716 21.458 56.1276 21.182C56.5956 20.894 56.9616 20.498 57.2256 19.994C57.5016 19.49 57.6396 18.92 57.6396 18.284ZM72.3536 13.478C72.5816 13.478 72.7736 13.562 72.9296 13.73C73.0976 13.886 73.1816 14.09 73.1816 14.342C73.1816 14.426 73.1576 14.54 73.1096 14.684L70.3556 22.46C70.2836 22.652 70.1636 22.796 69.9956 22.892C69.8276 22.988 69.6476 23.024 69.4556 23C69.1316 22.976 68.8856 22.796 68.7176 22.46L66.8456 17.564L65.1176 22.46C65.0456 22.628 64.9436 22.76 64.8116 22.856C64.6796 22.94 64.5356 22.988 64.3796 23C64.1996 23.024 64.0196 22.988 63.8396 22.892C63.6716 22.784 63.5576 22.64 63.4976 22.46L60.7076 14.684C60.6716 14.576 60.6536 14.462 60.6536 14.342C60.6536 14.102 60.7316 13.898 60.8876 13.73C61.0436 13.562 61.2476 13.478 61.4996 13.478C61.9076 13.478 62.1716 13.658 62.2916 14.018L64.4336 20.084L66.1436 15.602C66.2876 15.242 66.5516 15.062 66.9356 15.062C67.2956 15.062 67.5416 15.242 67.6736 15.602L69.4196 20.012L71.5256 14.018C71.6576 13.658 71.9336 13.478 72.3536 13.478Z" fill="white"/>
<path d="M144.855 10.382C145.095 10.394 145.299 10.484 145.467 10.652C145.635 10.808 145.719 11.006 145.719 11.246V22.136C145.719 22.376 145.635 22.58 145.467 22.748C145.311 22.916 145.101 23 144.837 23C144.573 23 144.357 22.922 144.189 22.766C144.021 22.598 143.937 22.388 143.937 22.136V13.802L140.445 19.094C140.361 19.202 140.253 19.292 140.121 19.364C140.001 19.436 139.875 19.466 139.743 19.454C139.623 19.466 139.497 19.436 139.365 19.364C139.245 19.292 139.143 19.202 139.059 19.094L135.549 13.64V22.136C135.549 22.388 135.471 22.598 135.315 22.766C135.171 22.922 134.973 23 134.721 23C134.481 23 134.283 22.922 134.127 22.766C133.983 22.598 133.911 22.388 133.911 22.136V11.246C133.911 11.018 133.995 10.82 134.163 10.652C134.331 10.472 134.541 10.382 134.793 10.382C134.937 10.382 135.075 10.418 135.207 10.49C135.351 10.562 135.465 10.658 135.549 10.778L139.815 17.24L144.135 10.778C144.327 10.514 144.567 10.382 144.855 10.382ZM156.775 17.924C156.763 18.14 156.673 18.326 156.505 18.482C156.337 18.626 156.139 18.698 155.911 18.698H149.575C149.659 19.574 149.989 20.276 150.565 20.804C151.153 21.332 151.867 21.596 152.707 21.596C153.283 21.596 153.751 21.512 154.111 21.344C154.471 21.176 154.789 20.96 155.065 20.696C155.245 20.588 155.419 20.534 155.587 20.534C155.791 20.534 155.959 20.606 156.091 20.75C156.235 20.894 156.307 21.062 156.307 21.254C156.307 21.506 156.187 21.734 155.947 21.938C155.599 22.286 155.137 22.58 154.561 22.82C153.985 23.06 153.397 23.18 152.797 23.18C151.825 23.18 150.967 22.976 150.223 22.568C149.491 22.16 148.921 21.59 148.513 20.858C148.117 20.126 147.919 19.298 147.919 18.374C147.919 17.366 148.123 16.484 148.531 15.728C148.951 14.96 149.497 14.372 150.169 13.964C150.853 13.556 151.585 13.352 152.365 13.352C153.133 13.352 153.853 13.55 154.525 13.946C155.197 14.342 155.737 14.888 156.145 15.584C156.553 16.28 156.763 17.06 156.775 17.924ZM152.365 14.936C151.693 14.936 151.111 15.128 150.619 15.512C150.127 15.884 149.803 16.466 149.647 17.258H154.957V17.114C154.897 16.478 154.609 15.956 154.093 15.548C153.589 15.14 153.013 14.936 152.365 14.936ZM152.329 12.902C152.233 12.902 152.131 12.86 152.023 12.776C151.915 12.692 151.867 12.578 151.879 12.434C151.879 12.338 151.915 12.23 151.987 12.11L153.049 10.328C153.145 10.16 153.259 10.022 153.391 9.914C153.535 9.806 153.697 9.752 153.877 9.752C154.141 9.752 154.339 9.824 154.471 9.968C154.615 10.1 154.681 10.28 154.669 10.508C154.669 10.724 154.579 10.934 154.399 11.138L153.049 12.614C152.857 12.806 152.617 12.902 152.329 12.902ZM166.411 9.68C166.663 9.68 166.867 9.764 167.023 9.932C167.191 10.088 167.275 10.292 167.275 10.544V22.136C167.275 22.376 167.191 22.58 167.023 22.748C166.867 22.916 166.663 23 166.411 23C166.159 23 165.955 22.922 165.799 22.766C165.643 22.598 165.565 22.388 165.565 22.136V21.632C165.265 22.064 164.839 22.43 164.287 22.73C163.747 23.03 163.165 23.18 162.541 23.18C161.725 23.18 160.987 22.97 160.327 22.55C159.667 22.13 159.145 21.548 158.761 20.804C158.377 20.048 158.185 19.202 158.185 18.266C158.185 17.33 158.371 16.49 158.743 15.746C159.127 14.99 159.649 14.402 160.309 13.982C160.969 13.562 161.695 13.352 162.487 13.352C163.123 13.352 163.711 13.484 164.251 13.748C164.791 14.012 165.229 14.354 165.565 14.774V10.544C165.565 10.292 165.643 10.088 165.799 9.932C165.955 9.764 166.159 9.68 166.411 9.68ZM162.739 21.596C163.303 21.596 163.801 21.452 164.233 21.164C164.677 20.876 165.019 20.48 165.259 19.976C165.511 19.472 165.637 18.902 165.637 18.266C165.637 17.642 165.511 17.078 165.259 16.574C165.019 16.058 164.677 15.656 164.233 15.368C163.801 15.08 163.303 14.936 162.739 14.936C162.175 14.936 161.671 15.08 161.227 15.368C160.795 15.656 160.453 16.058 160.201 16.574C159.961 17.078 159.841 17.642 159.841 18.266C159.841 18.902 159.961 19.472 160.201 19.976C160.453 20.48 160.795 20.876 161.227 21.164C161.671 21.452 162.175 21.596 162.739 21.596ZM171.438 22.136C171.438 22.376 171.354 22.58 171.186 22.748C171.03 22.916 170.826 23 170.574 23C170.334 23 170.13 22.916 169.962 22.748C169.806 22.58 169.728 22.376 169.728 22.136V14.342C169.728 14.102 169.806 13.898 169.962 13.73C170.13 13.562 170.334 13.478 170.574 13.478C170.826 13.478 171.03 13.562 171.186 13.73C171.354 13.898 171.438 14.102 171.438 14.342V22.136ZM170.574 12.29C170.226 12.29 169.974 12.23 169.818 12.11C169.674 11.978 169.602 11.774 169.602 11.498V11.21C169.602 10.922 169.68 10.718 169.836 10.598C170.004 10.478 170.256 10.418 170.592 10.418C170.928 10.418 171.168 10.484 171.312 10.616C171.468 10.736 171.546 10.934 171.546 11.21V11.498C171.546 11.786 171.468 11.99 171.312 12.11C171.156 12.23 170.91 12.29 170.574 12.29ZM180.916 13.568C181.168 13.568 181.372 13.652 181.528 13.82C181.696 13.988 181.78 14.192 181.78 14.432V19.22C181.78 20.468 181.432 21.44 180.736 22.136C180.052 22.82 179.08 23.162 177.82 23.162C176.572 23.162 175.606 22.82 174.922 22.136C174.238 21.44 173.896 20.468 173.896 19.22V14.432C173.896 14.192 173.974 13.988 174.13 13.82C174.298 13.652 174.502 13.568 174.742 13.568C174.994 13.568 175.198 13.652 175.354 13.82C175.522 13.988 175.606 14.192 175.606 14.432V19.22C175.606 20.792 176.344 21.578 177.82 21.578C178.552 21.578 179.11 21.38 179.494 20.984C179.878 20.588 180.07 20 180.07 19.22V14.432C180.07 14.192 180.148 13.988 180.304 13.82C180.472 13.652 180.676 13.568 180.916 13.568ZM195.155 13.406C197.255 13.406 198.305 14.714 198.305 17.33V22.136C198.305 22.388 198.227 22.598 198.071 22.766C197.915 22.922 197.711 23 197.459 23C197.207 23 196.997 22.916 196.829 22.748C196.673 22.58 196.595 22.376 196.595 22.136V17.348C196.595 15.776 195.935 14.99 194.615 14.99C194.147 14.99 193.721 15.098 193.337 15.314C192.965 15.518 192.671 15.8 192.455 16.16C192.251 16.52 192.149 16.916 192.149 17.348V22.136C192.149 22.376 192.065 22.58 191.897 22.748C191.741 22.916 191.537 23 191.285 23C191.033 23 190.829 22.922 190.673 22.766C190.517 22.598 190.439 22.388 190.439 22.136V17.33C190.439 16.622 190.289 16.058 189.989 15.638C189.689 15.206 189.191 14.99 188.495 14.99C187.787 14.99 187.199 15.218 186.731 15.674C186.275 16.118 186.047 16.67 186.047 17.33V22.136C186.047 22.376 185.963 22.58 185.795 22.748C185.639 22.916 185.435 23 185.183 23C184.931 23 184.727 22.922 184.571 22.766C184.415 22.598 184.337 22.388 184.337 22.136V14.432C184.337 14.192 184.415 13.988 184.571 13.82C184.739 13.652 184.943 13.568 185.183 13.568C185.435 13.568 185.639 13.652 185.795 13.82C185.963 13.988 186.047 14.192 186.047 14.432V15.062C186.359 14.594 186.773 14.204 187.289 13.892C187.817 13.568 188.387 13.406 188.999 13.406C190.487 13.406 191.453 14.066 191.897 15.386C192.161 14.882 192.599 14.426 193.211 14.018C193.823 13.61 194.471 13.406 195.155 13.406Z" fill="white"/>
<path d="M259.704 10.4C259.968 10.4 260.184 10.484 260.352 10.652C260.52 10.808 260.604 11.012 260.604 11.264V22.118C260.592 22.37 260.502 22.58 260.334 22.748C260.166 22.916 259.95 23 259.686 23C259.446 23 259.236 22.916 259.056 22.748C258.888 22.58 258.804 22.37 258.804 22.118V17.456H252.414V22.118C252.414 22.37 252.324 22.58 252.144 22.748C251.964 22.916 251.754 23 251.514 23C251.25 23 251.034 22.916 250.866 22.748C250.71 22.58 250.632 22.37 250.632 22.118V11.264C250.632 11.024 250.716 10.82 250.884 10.652C251.052 10.484 251.268 10.4 251.532 10.4C251.772 10.4 251.976 10.484 252.144 10.652C252.324 10.82 252.414 11.024 252.414 11.264V15.8H258.804V11.264C258.804 11.024 258.894 10.82 259.074 10.652C259.254 10.484 259.464 10.4 259.704 10.4ZM264.974 22.136C264.974 22.376 264.89 22.58 264.722 22.748C264.566 22.916 264.362 23 264.11 23C263.87 23 263.666 22.916 263.498 22.748C263.342 22.58 263.264 22.376 263.264 22.136V14.342C263.264 14.102 263.342 13.898 263.498 13.73C263.666 13.562 263.87 13.478 264.11 13.478C264.362 13.478 264.566 13.562 264.722 13.73C264.89 13.898 264.974 14.102 264.974 14.342V22.136ZM264.11 12.29C263.762 12.29 263.51 12.23 263.354 12.11C263.21 11.978 263.138 11.774 263.138 11.498V11.21C263.138 10.922 263.216 10.718 263.372 10.598C263.54 10.478 263.792 10.418 264.128 10.418C264.464 10.418 264.704 10.484 264.848 10.616C265.004 10.736 265.082 10.934 265.082 11.21V11.498C265.082 11.786 265.004 11.99 264.848 12.11C264.692 12.23 264.446 12.29 264.11 12.29ZM275.316 13.442C275.568 13.442 275.772 13.526 275.928 13.694C276.096 13.85 276.18 14.06 276.18 14.324V22.244C276.18 23.216 275.97 24.026 275.55 24.674C275.142 25.334 274.584 25.82 273.876 26.132C273.168 26.444 272.37 26.6 271.482 26.6C271.002 26.6 270.438 26.516 269.79 26.348C269.154 26.18 268.746 26.006 268.566 25.826C268.194 25.634 268.008 25.394 268.008 25.106C268.008 25.034 268.032 24.938 268.08 24.818C268.212 24.518 268.434 24.368 268.746 24.368C268.902 24.368 269.07 24.404 269.25 24.476C270.21 24.848 270.96 25.034 271.5 25.034C272.46 25.034 273.192 24.8 273.696 24.332C274.212 23.876 274.47 23.246 274.47 22.442V21.47C274.218 21.938 273.792 22.34 273.192 22.676C272.604 23.012 271.98 23.18 271.32 23.18C270.492 23.18 269.736 22.97 269.052 22.55C268.368 22.13 267.828 21.548 267.432 20.804C267.048 20.048 266.856 19.202 266.856 18.266C266.856 17.33 267.048 16.49 267.432 15.746C267.828 14.99 268.362 14.402 269.034 13.982C269.718 13.562 270.468 13.352 271.284 13.352C271.944 13.352 272.556 13.502 273.12 13.802C273.696 14.102 274.146 14.468 274.47 14.9V14.324C274.47 14.072 274.548 13.862 274.704 13.694C274.86 13.526 275.064 13.442 275.316 13.442ZM271.518 21.596C272.106 21.596 272.628 21.458 273.084 21.182C273.54 20.894 273.894 20.498 274.146 19.994C274.41 19.478 274.542 18.902 274.542 18.266C274.542 17.63 274.41 17.06 274.146 16.556C273.894 16.052 273.54 15.656 273.084 15.368C272.628 15.08 272.106 14.936 271.518 14.936C270.942 14.936 270.426 15.08 269.97 15.368C269.514 15.656 269.154 16.058 268.89 16.574C268.638 17.078 268.512 17.642 268.512 18.266C268.512 18.89 268.638 19.46 268.89 19.976C269.154 20.48 269.514 20.876 269.97 21.164C270.426 21.452 270.942 21.596 271.518 21.596ZM283.415 13.406C285.527 13.406 286.583 14.714 286.583 17.33V22.136C286.583 22.376 286.499 22.58 286.331 22.748C286.175 22.916 285.971 23 285.719 23C285.479 23 285.275 22.916 285.107 22.748C284.951 22.58 284.873 22.376 284.873 22.136V17.33C284.873 15.77 284.213 14.99 282.893 14.99C282.185 14.99 281.597 15.218 281.129 15.674C280.661 16.118 280.427 16.67 280.427 17.33V22.136C280.427 22.376 280.343 22.58 280.175 22.748C280.019 22.916 279.815 23 279.563 23C279.311 23 279.107 22.922 278.951 22.766C278.795 22.598 278.717 22.388 278.717 22.136V10.544C278.717 10.304 278.795 10.1 278.951 9.932C279.119 9.764 279.323 9.68 279.563 9.68C279.815 9.68 280.019 9.764 280.175 9.932C280.343 10.1 280.427 10.304 280.427 10.544V15.098C280.727 14.63 281.147 14.234 281.687 13.91C282.227 13.574 282.803 13.406 283.415 13.406Z" fill="white"/>
</svg>
