<svg width="1154" height="1172" viewBox="0 0 1154 1172" fill="none" xmlns="http://www.w3.org/2000/svg">
<path d="M432.089 739.959C432.089 755.703 429.26 770.955 423.602 785.716C418.19 800.23 411.179 814.13 402.569 827.414C398.387 833.564 393.835 839.591 388.915 845.495C384.241 851.154 378.952 856.197 373.048 860.625C367.39 865.053 361.117 868.62 354.228 871.326C347.586 874.032 340.329 875.385 332.457 875.385C331.473 875.385 329.874 875.262 327.66 875.016C325.692 875.016 324.339 874.893 323.601 874.647C319.664 873.663 316.097 871.572 312.899 868.374C309.701 865.176 307.364 861.732 305.888 858.042C302.936 865.914 299.123 875.754 294.449 887.562C289.775 899.617 284.363 912.286 278.212 925.57C272.062 938.855 265.297 952.139 257.917 965.423C250.291 978.954 242.295 991.008 233.931 1001.59C225.321 1012.41 216.342 1021.14 206.994 1027.79C197.399 1034.43 187.682 1037.75 177.842 1037.75C170.954 1037.75 164.803 1036.4 159.391 1033.69C153.979 1031.23 149.182 1027.79 145 1023.36C140.572 1019.18 136.636 1014.38 133.192 1008.97C129.748 1003.8 126.549 998.511 123.597 993.099C123.105 992.115 122.859 991.377 122.859 990.885C122.859 989.409 123.597 988.056 125.073 986.826C126.303 985.842 127.533 985.35 128.764 985.35C130.486 985.35 131.839 986.088 132.823 987.564C134.053 989.532 135.283 991.377 136.513 993.099C137.743 994.821 138.973 996.666 140.203 998.634C144.385 1004.54 149.428 1010.2 155.332 1015.61C161.236 1021.02 168.125 1023.73 175.997 1023.73C183.131 1023.73 190.265 1021.14 197.399 1015.98C204.287 1010.81 211.053 1004.05 217.695 995.682C224.337 987.318 230.61 977.97 236.514 967.638C242.418 957.551 247.831 947.465 252.751 937.379C257.671 927.292 262.099 917.698 266.035 908.596C269.725 899.74 272.677 892.606 274.891 887.193C283.502 865.299 291.128 843.281 297.77 821.141C304.412 799 310.685 776.491 316.589 753.612C318.557 745.986 320.402 738.483 322.125 731.102C324.093 723.722 326.061 716.219 328.029 708.593C329.013 705.395 329.751 702.197 330.243 698.999C330.981 695.554 331.965 692.233 333.195 689.035C334.179 686.575 335.901 685.345 338.361 685.345C340.083 685.345 341.559 685.837 342.789 686.821C344.019 687.559 344.634 688.789 344.634 690.511C344.634 693.217 344.511 696.169 344.265 699.368C344.019 702.566 343.65 705.887 343.158 709.331C344.142 708.839 345.003 708.47 345.741 708.224C346.479 707.732 347.217 707.24 347.955 706.748C354.597 703.304 360.871 700.475 366.775 698.261C372.925 695.8 379.69 693.955 387.07 692.725C388.3 692.479 389.407 692.356 390.391 692.356C391.621 692.11 392.851 691.987 394.081 691.987C398.756 691.987 403.184 692.971 407.366 694.939C411.548 696.662 415.238 699.122 418.436 702.32C421.88 705.272 424.709 708.839 426.923 713.021C429.137 716.957 430.613 721.139 431.351 725.567C431.597 728.027 431.72 730.487 431.72 732.947C431.966 735.162 432.089 737.499 432.089 739.959ZM415.484 737.007C415.484 728.642 413.762 721.508 410.318 715.604C406.874 709.454 400.478 706.379 391.129 706.379C386.455 706.379 381.412 707.24 376 708.962C370.588 710.438 365.545 712.16 360.871 714.128C356.196 716.096 352.014 717.941 348.324 719.663C344.88 721.385 342.666 722.246 341.682 722.246C340.206 732.332 338.361 742.419 336.147 752.505C334.179 762.591 332.211 771.324 330.243 778.705C329.259 782.887 328.029 787.192 326.553 791.62C325.323 795.802 324.339 799.984 323.601 804.166C322.863 808.102 322.371 812.9 322.125 818.558C321.879 824.216 321.756 829.136 321.756 833.318C321.756 834.794 321.756 836.762 321.756 839.222C321.756 841.436 321.879 843.65 322.125 845.864C322.617 848.078 323.232 850.046 323.97 851.769C324.954 853.491 326.43 854.598 328.398 855.09C329.136 855.336 329.874 855.459 330.612 855.459C331.596 855.459 332.457 855.459 333.195 855.459C338.607 855.459 343.896 854.229 349.062 851.769C354.474 849.308 359.518 846.233 364.192 842.543C368.866 838.853 373.171 834.794 377.107 830.366C381.043 825.692 384.364 821.264 387.07 817.082C394.696 805.273 401.339 792.481 406.997 778.705C412.655 764.928 415.484 751.029 415.484 737.007ZM627.295 834.425C627.295 835.409 626.803 836.393 625.819 837.377C620.899 843.035 616.225 848.57 611.797 853.983C607.369 859.395 602.572 864.438 597.406 869.112C592.486 873.786 586.95 877.845 580.8 881.289C574.896 884.733 568.131 887.316 560.505 889.039C549.188 883.872 543.53 875.139 543.53 862.839C543.53 860.133 543.776 857.427 544.268 854.721C544.76 851.769 544.883 848.816 544.637 845.864C541.193 849.554 536.888 853.737 531.722 858.411C526.802 862.839 521.39 867.144 515.486 871.326C509.827 875.508 504.046 878.952 498.142 881.658C492.238 884.61 486.703 886.086 481.537 886.086C474.648 886.086 468.99 884.61 464.562 881.658C460.134 878.952 456.567 875.385 453.861 870.957C451.401 866.283 449.679 861.117 448.695 855.459C447.711 849.554 447.219 843.773 447.219 838.115C447.219 832.211 447.588 826.43 448.326 820.772C449.556 808.963 451.647 797.647 454.599 786.823C457.551 775.753 461.118 764.805 465.3 753.981C468.498 746.355 471.819 738.852 475.264 731.471C478.708 723.845 482.152 716.342 485.596 708.962C486.826 706.502 488.056 703.796 489.286 700.844C490.516 697.646 491.869 695.062 493.345 693.094C494.575 691.372 496.051 690.511 497.773 690.511C499.003 690.511 500.356 691.126 501.832 692.356C503.308 693.586 504.046 694.816 504.046 696.046C504.046 697.769 503.677 700.229 502.939 703.427C502.447 706.379 501.709 709.577 500.725 713.021C499.987 716.219 499.126 719.417 498.142 722.615C497.404 725.567 496.666 727.904 495.928 729.626C493.222 738.483 490.024 747.339 486.334 756.195C482.89 764.805 479.569 773.662 476.371 782.764C473.418 791.62 470.835 800.599 468.621 809.701C466.653 818.804 465.669 828.029 465.669 837.377C465.669 840.083 465.792 843.281 466.038 846.971C466.284 850.415 466.899 853.86 467.883 857.304C468.867 860.502 470.343 863.331 472.311 865.791C474.525 868.005 477.478 869.112 481.168 869.112C486.088 869.112 491.623 867.513 497.773 864.315C504.169 860.871 510.442 856.935 516.593 852.507C522.989 847.832 529.016 843.035 534.674 838.115C540.332 833.195 544.883 829.136 548.327 825.938C550.541 815.36 553.494 803.551 557.184 790.513C561.12 777.229 565.671 763.944 570.837 750.66C576.003 737.376 581.661 724.829 587.811 713.021C593.962 700.967 600.604 690.88 607.738 682.762C608.968 681.532 610.198 680.917 611.428 680.917C612.904 680.917 614.38 681.532 615.856 682.762C617.332 683.992 618.07 685.468 618.07 687.19C617.824 687.436 617.701 687.682 617.701 687.928C613.027 700.967 607.369 715.112 600.727 730.364C594.331 745.371 588.18 760.746 582.276 776.491C576.372 791.989 571.329 807.487 567.147 822.986C562.965 838.484 560.874 853.245 560.874 867.267C560.874 868.251 560.874 869.235 560.874 870.219C561.12 871.203 561.735 871.941 562.719 872.433C568.377 871.449 574.281 868.62 580.431 863.946C586.827 859.272 592.732 854.352 598.144 849.185C603.802 843.773 608.722 838.976 612.904 834.794C617.086 830.612 619.792 828.521 621.022 828.521C622.498 828.521 623.851 829.136 625.081 830.366C626.557 831.596 627.295 832.949 627.295 834.425ZM767.888 723.353C767.888 725.321 767.765 727.166 767.519 728.888C767.273 730.61 766.904 732.455 766.412 734.423C765.92 736.392 764.567 737.376 762.353 737.376C761.369 737.376 759.893 737.007 757.925 736.269C756.203 735.285 755.342 734.3 755.342 733.316L755.711 729.995C755.711 728.273 755.465 726.182 754.973 723.722C754.727 721.262 754.112 718.925 753.128 716.711C752.39 714.251 751.283 712.283 749.807 710.807C748.331 709.085 746.363 708.224 743.902 708.224C737.998 708.224 731.725 710.069 725.083 713.759C718.441 717.203 712.783 720.647 708.109 724.091C706.141 725.567 703.434 727.781 699.99 730.733C696.546 733.685 692.979 736.884 689.289 740.328C685.599 743.772 682.155 747.093 678.957 750.291C676.005 753.489 673.914 756.072 672.684 758.04C671.946 759.024 670.962 760.869 669.732 763.575C668.748 766.035 667.641 768.741 666.41 771.693C665.426 774.646 664.319 777.475 663.089 780.181C662.105 782.887 661.244 784.978 660.506 786.454C655.586 798.262 650.789 810.07 646.115 821.879C641.687 833.687 637.505 845.618 633.569 857.673C631.601 863.331 629.756 869.112 628.033 875.016C626.557 881.166 624.835 887.07 622.867 892.729C621.883 894.697 620.653 895.681 619.177 895.681C618.193 895.681 616.717 895.066 614.749 893.836C613.027 892.852 612.166 891.868 612.166 890.884C612.166 888.177 612.535 885.102 613.273 881.658C614.257 878.214 614.995 875.139 615.487 872.433C618.685 856.443 622.621 840.698 627.295 825.2C631.97 809.701 637.382 794.449 643.532 779.443C645.746 773.539 648.329 766.527 651.281 758.409C654.479 750.291 657.8 742.05 661.244 733.685C664.688 725.075 668.256 717.08 671.946 709.7C675.882 702.074 679.818 696.046 683.754 691.618C684.738 690.634 685.845 690.142 687.075 690.142C688.059 690.142 689.412 690.757 691.134 691.987C693.102 692.971 694.086 694.078 694.086 695.308C694.086 696.046 693.84 697.4 693.348 699.368C692.856 701.09 692.364 703.058 691.872 705.272C691.38 707.24 690.765 709.208 690.027 711.176C689.535 712.898 689.166 714.128 688.92 714.866C696.792 708.962 705.033 703.673 713.644 698.999C722.254 694.324 731.725 691.987 742.057 691.987C746.486 691.987 750.299 692.971 753.497 694.939C756.695 696.662 759.401 698.999 761.615 701.951C763.829 704.903 765.428 708.224 766.412 711.914C767.396 715.604 767.888 719.417 767.888 723.353ZM888.923 717.08C888.923 723.23 887.447 729.38 884.495 735.531C881.543 741.435 877.73 747.093 873.056 752.505C868.628 757.917 863.708 762.837 858.295 767.265C852.883 771.693 847.84 775.507 843.166 778.705C836.032 783.625 828.529 788.176 820.656 792.358C813.03 796.54 804.666 798.631 795.564 798.631C793.596 798.631 791.382 798.385 788.922 797.893C786.708 797.401 785.601 795.802 785.601 793.096C785.601 789.652 787.2 787.561 790.398 786.823C791.136 786.577 791.997 786.454 792.981 786.454C793.965 786.454 794.949 786.331 795.933 786.085C798.639 785.593 801.222 784.732 803.682 783.502C806.388 782.272 809.094 780.919 811.8 779.443C815.982 776.737 821.271 772.923 827.668 768.003C834.064 763.083 840.337 757.671 846.487 751.767C852.637 745.863 857.803 739.836 861.986 733.685C866.414 727.535 868.628 721.754 868.628 716.342C868.628 712.898 866.783 711.176 863.093 711.176C861.617 711.176 860.14 711.422 858.664 711.914C857.188 712.406 855.712 712.898 854.236 713.39C842.428 717.326 831.604 723.353 821.763 731.471C811.923 739.344 803.436 748.569 796.302 759.147C789.168 769.725 783.509 781.042 779.327 793.096C775.391 805.15 773.423 817.205 773.423 829.259C773.423 833.195 773.669 837.746 774.161 842.912C774.899 847.832 776.129 852.507 777.851 856.935C779.819 861.363 782.402 865.176 785.601 868.374C788.799 871.326 792.981 872.802 798.147 872.802C800.115 872.802 801.96 872.433 803.682 871.695C805.404 871.203 807.126 870.465 808.848 869.481C815.49 865.791 821.64 860.871 827.299 854.721C832.957 848.324 838 841.928 842.428 835.532C843.658 834.056 844.765 832.457 845.749 830.735C846.979 829.013 848.209 827.291 849.439 825.569C850.177 824.339 851.407 823.724 853.129 823.724C854.605 823.724 855.958 824.216 857.188 825.2C858.664 826.184 859.402 827.537 859.402 829.259C859.402 829.751 859.156 830.489 858.664 831.473C855.712 836.885 852.022 842.912 847.594 849.554C843.166 855.951 838.246 861.978 832.834 867.636C827.422 873.294 821.517 877.968 815.121 881.658C808.971 885.594 802.452 887.562 795.564 887.562C787.938 887.562 781.541 885.348 776.375 880.92C771.455 876.738 767.519 871.572 764.567 865.422C761.615 859.026 759.524 852.261 758.294 845.126C757.064 837.746 756.449 831.104 756.449 825.2C756.449 806.503 760.385 788.668 768.257 771.693C776.129 754.473 786.708 739.344 799.992 726.305C803.928 722.369 808.479 718.433 813.645 714.497C818.811 710.315 824.224 706.625 829.882 703.427C835.786 699.983 841.69 697.277 847.594 695.308C853.744 693.094 859.648 691.987 865.307 691.987C872.441 691.987 878.099 694.447 882.281 699.368C886.709 704.042 888.923 709.946 888.923 717.08Z" fill="white"/>
<path d="M108.913 896.053C72.6089 768.988 93.0713 472.284 465.354 301.984C837.637 131.685 889.453 44.5549 868.825 22.2773C991.764 193.072 1133.04 559.391 1024.77 829.22C868.825 1217.84 410.898 1202.99 259.905 1106.45" stroke="white" stroke-width="15"/>
<circle cx="262.38" cy="1103.98" r="24.7528" fill="white"/>
<circle cx="118.814" cy="896.054" r="24.7528" fill="white"/>
<circle cx="876.251" cy="24.7528" r="24.7528" fill="white"/>
</svg>
