<svg width="330" height="34" viewBox="0 0 330 34" fill="none" xmlns="http://www.w3.org/2000/svg">
<rect width="159" height="34" rx="16.8715" transform="matrix(-1 0 0 1 330 0)" fill="#79795E"/>
<path d="M164.288 17.2567L192.512 33.1235L193.974 2.05305L164.288 17.2567Z" fill="#79795E"/>
<rect x="76" width="133" height="34" rx="16.8715" fill="#6594A3"/>
<path d="M229.679 16.2563L200 32L197.5 0.99965L229.679 16.2563Z" fill="#6594A3"/>
<rect width="109" height="34" rx="16.8715" fill="#1195BF"/>
<path d="M127.498 16.2567L99.2746 32.1235L97.8125 1.05305L127.498 16.2567Z" fill="#1195BF"/>
<path d="M87.101 25.0317C90.47 24.1186 91.0544 21.966 91.2256 21.1905C91.6192 19.4073 92.0442 15.775 86.8806 8.50195C86.7553 8.32545 86.64 8.15853 86.5343 8C83.0861 12.1344 77.6933 21.0771 83.7077 23.7723" stroke="#FCFCFC" stroke-width="1.51129" stroke-linecap="round"/>
<path d="M289.101 25.0317C292.47 24.1186 293.054 21.966 293.226 21.1905C293.619 19.4073 294.044 15.775 288.881 8.50195C288.755 8.32545 288.64 8.15853 288.534 8C285.086 12.1344 279.693 21.0771 285.708 23.7723" stroke="#FCFCFC" stroke-width="1.51129" stroke-linecap="round"/>
<path d="M194.101 24.0317C197.47 23.1186 198.054 20.966 198.226 20.1905C198.619 18.4073 199.044 14.775 193.881 7.50195C193.755 7.32545 193.64 7.15853 193.534 7C190.086 11.1344 184.693 20.0771 190.708 22.7723" stroke="#FCFCFC" stroke-width="1.51129" stroke-linecap="round"/>
<path d="M84.3612 19.0418C84.3612 18.6244 84.0229 18.2861 83.6055 18.2861C83.1882 18.2861 82.8499 18.6244 82.8499 19.0417L84.3612 19.0418ZM89.7987 19.6656C89.9413 19.2734 89.739 18.8398 89.3468 18.6972C88.9546 18.5546 88.521 18.7569 88.3784 19.1491L89.7987 19.6656ZM82.8499 19.0417C82.8498 20.8643 84.1103 22.2738 85.656 22.571C86.4378 22.7214 87.2784 22.5829 88.0298 22.0893C88.7772 21.5984 89.3905 20.788 89.7987 19.6656L88.3784 19.1491C88.0555 20.0371 87.6178 20.5518 87.2001 20.8262C86.7863 21.0979 86.3475 21.165 85.9414 21.0869C85.1111 20.9273 84.3611 20.1436 84.3612 19.0418L82.8499 19.0417Z" fill="black"/>
<path d="M84.3612 19.0418C84.3612 18.6244 84.0229 18.2861 83.6055 18.2861C83.1882 18.2861 82.8499 18.6244 82.8499 19.0417L84.3612 19.0418ZM89.7987 19.6656C89.9413 19.2734 89.739 18.8398 89.3468 18.6972C88.9546 18.5546 88.521 18.7569 88.3784 19.1491L89.7987 19.6656ZM82.8499 19.0417C82.8498 20.8643 84.1103 22.2738 85.656 22.571C86.4378 22.7214 87.2784 22.5829 88.0298 22.0893C88.7772 21.5984 89.3905 20.788 89.7987 19.6656L88.3784 19.1491C88.0555 20.0371 87.6178 20.5518 87.2001 20.8262C86.7863 21.0979 86.3475 21.165 85.9414 21.0869C85.1111 20.9273 84.3611 20.1436 84.3612 19.0418L82.8499 19.0417Z" fill="url(#paint0_linear)" fill-opacity="0.2"/>
<path d="M84.3612 19.0418C84.3612 18.6244 84.0229 18.2861 83.6055 18.2861C83.1882 18.2861 82.8499 18.6244 82.8499 19.0417L84.3612 19.0418ZM89.7987 19.6656C89.9413 19.2734 89.739 18.8398 89.3468 18.6972C88.9546 18.5546 88.521 18.7569 88.3784 19.1491L89.7987 19.6656ZM82.8499 19.0417C82.8498 20.8643 84.1103 22.2738 85.656 22.571C86.4378 22.7214 87.2784 22.5829 88.0298 22.0893C88.7772 21.5984 89.3905 20.788 89.7987 19.6656L88.3784 19.1491C88.0555 20.0371 87.6178 20.5518 87.2001 20.8262C86.7863 21.0979 86.3475 21.165 85.9414 21.0869C85.1111 20.9273 84.3611 20.1436 84.3612 19.0418L82.8499 19.0417Z" fill="#FCFCFC"/>
<path d="M286.361 20.5871C286.361 21.0045 286.023 21.3428 285.605 21.3428C285.188 21.3428 284.85 21.0045 284.85 20.5872L286.361 20.5871ZM291.799 19.9633C291.941 20.3555 291.739 20.7891 291.347 20.9317C290.954 21.0743 290.521 20.872 290.378 20.4798L291.799 19.9633ZM284.85 20.5872C284.85 18.7646 286.11 17.3551 287.656 17.0579C288.438 16.9075 289.278 17.046 290.03 17.5396C290.777 18.0305 291.39 18.8409 291.799 19.9633L290.378 20.4798C290.055 19.5918 289.618 19.0771 289.2 18.8027C288.786 18.531 288.347 18.4639 287.941 18.542C287.111 18.7016 286.361 19.4854 286.361 20.5871L284.85 20.5872Z" fill="black"/>
<path d="M286.361 20.5871C286.361 21.0045 286.023 21.3428 285.605 21.3428C285.188 21.3428 284.85 21.0045 284.85 20.5872L286.361 20.5871ZM291.799 19.9633C291.941 20.3555 291.739 20.7891 291.347 20.9317C290.954 21.0743 290.521 20.872 290.378 20.4798L291.799 19.9633ZM284.85 20.5872C284.85 18.7646 286.11 17.3551 287.656 17.0579C288.438 16.9075 289.278 17.046 290.03 17.5396C290.777 18.0305 291.39 18.8409 291.799 19.9633L290.378 20.4798C290.055 19.5918 289.618 19.0771 289.2 18.8027C288.786 18.531 288.347 18.4639 287.941 18.542C287.111 18.7016 286.361 19.4854 286.361 20.5871L284.85 20.5872Z" fill="url(#paint1_linear)" fill-opacity="0.2"/>
<path d="M286.361 20.5871C286.361 21.0045 286.023 21.3428 285.605 21.3428C285.188 21.3428 284.85 21.0045 284.85 20.5872L286.361 20.5871ZM291.799 19.9633C291.941 20.3555 291.739 20.7891 291.347 20.9317C290.954 21.0743 290.521 20.872 290.378 20.4798L291.799 19.9633ZM284.85 20.5872C284.85 18.7646 286.11 17.3551 287.656 17.0579C288.438 16.9075 289.278 17.046 290.03 17.5396C290.777 18.0305 291.39 18.8409 291.799 19.9633L290.378 20.4798C290.055 19.5918 289.618 19.0771 289.2 18.8027C288.786 18.531 288.347 18.4639 287.941 18.542C287.111 18.7016 286.361 19.4854 286.361 20.5871L284.85 20.5872Z" fill="#FCFCFC"/>
<path d="M190.342 18.3219C189.932 18.24 189.534 18.5054 189.452 18.9147C189.371 19.3239 189.636 19.722 190.045 19.8038L190.342 18.3219ZM196.226 19.7956C196.631 19.6938 196.877 19.2832 196.775 18.8785C196.673 18.4737 196.262 18.2282 195.858 18.33L196.226 19.7956ZM190.045 19.8038C191.909 20.1764 193.457 20.4923 196.226 19.7956L195.858 18.33C193.416 18.9441 192.134 18.6802 190.342 18.3219L190.045 19.8038Z" fill="black"/>
<path d="M190.342 18.3219C189.932 18.24 189.534 18.5054 189.452 18.9147C189.371 19.3239 189.636 19.722 190.045 19.8038L190.342 18.3219ZM196.226 19.7956C196.631 19.6938 196.877 19.2832 196.775 18.8785C196.673 18.4737 196.262 18.2282 195.858 18.33L196.226 19.7956ZM190.045 19.8038C191.909 20.1764 193.457 20.4923 196.226 19.7956L195.858 18.33C193.416 18.9441 192.134 18.6802 190.342 18.3219L190.045 19.8038Z" fill="url(#paint2_linear)" fill-opacity="0.2"/>
<path d="M190.342 18.3219C189.932 18.24 189.534 18.5054 189.452 18.9147C189.371 19.3239 189.636 19.722 190.045 19.8038L190.342 18.3219ZM196.226 19.7956C196.631 19.6938 196.877 19.2832 196.775 18.8785C196.673 18.4737 196.262 18.2282 195.858 18.33L196.226 19.7956ZM190.045 19.8038C191.909 20.1764 193.457 20.4923 196.226 19.7956L195.858 18.33C193.416 18.9441 192.134 18.6802 190.342 18.3219L190.045 19.8038Z" fill="#FCFCFC"/>
<path d="M45.6635 21.328C45.6635 21.5147 45.5982 21.6733 45.4675 21.804C45.3369 21.9347 45.1782 22 44.9915 22C44.8049 22 44.6462 21.9347 44.5155 21.804C44.3942 21.6733 44.3335 21.5147 44.3335 21.328V12.312C44.3335 12.1253 44.3989 11.9667 44.5295 11.836C44.6602 11.7053 44.8189 11.64 45.0055 11.64C45.1922 11.64 45.3462 11.7053 45.4675 11.836C45.5982 11.9667 45.6635 12.1253 45.6635 12.312V21.328ZM54.5698 18.332C54.5698 19.06 54.4065 19.7133 54.0798 20.292C53.7532 20.8707 53.3052 21.3233 52.7358 21.65C52.1758 21.9767 51.5552 22.14 50.8738 22.14C50.1925 22.14 49.5672 21.9767 48.9978 21.65C48.4378 21.3233 47.9945 20.8707 47.6678 20.292C47.3412 19.7133 47.1778 19.06 47.1778 18.332C47.1778 17.604 47.3412 16.946 47.6678 16.358C47.9945 15.77 48.4378 15.3127 48.9978 14.986C49.5672 14.6593 50.1925 14.496 50.8738 14.496C51.5552 14.496 52.1758 14.6593 52.7358 14.986C53.3052 15.3127 53.7532 15.77 54.0798 16.358C54.4065 16.946 54.5698 17.604 54.5698 18.332ZM53.2398 18.332C53.2398 17.828 53.1325 17.38 52.9178 16.988C52.7125 16.5867 52.4278 16.2787 52.0638 16.064C51.7092 15.84 51.3125 15.728 50.8738 15.728C50.4352 15.728 50.0338 15.84 49.6698 16.064C49.3152 16.2787 49.0305 16.5867 48.8158 16.988C48.6105 17.38 48.5078 17.828 48.5078 18.332C48.5078 18.8267 48.6105 19.27 48.8158 19.662C49.0305 20.054 49.3152 20.362 49.6698 20.586C50.0338 20.8007 50.4352 20.908 50.8738 20.908C51.3125 20.908 51.7092 20.8007 52.0638 20.586C52.4278 20.362 52.7125 20.054 52.9178 19.662C53.1325 19.27 53.2398 18.8267 53.2398 18.332ZM64.6841 14.594C64.8614 14.594 65.0107 14.6593 65.1321 14.79C65.2627 14.9113 65.3281 15.07 65.3281 15.266C65.3281 15.3313 65.3094 15.42 65.2721 15.532L63.1301 21.58C63.0741 21.7293 62.9807 21.8413 62.8501 21.916C62.7194 21.9907 62.5794 22.0187 62.4301 22C62.1781 21.9813 61.9867 21.8413 61.8561 21.58L60.4001 17.772L59.0561 21.58C59.0001 21.7107 58.9207 21.8133 58.8181 21.888C58.7154 21.9533 58.6034 21.9907 58.4821 22C58.3421 22.0187 58.2021 21.9907 58.0621 21.916C57.9314 21.832 57.8427 21.72 57.7961 21.58L55.6261 15.532C55.5981 15.448 55.5841 15.3593 55.5841 15.266C55.5841 15.0793 55.6447 14.9207 55.7661 14.79C55.8874 14.6593 56.0461 14.594 56.2421 14.594C56.5594 14.594 56.7647 14.734 56.8581 15.014L58.5241 19.732L59.8541 16.246C59.9661 15.966 60.1714 15.826 60.4701 15.826C60.7501 15.826 60.9414 15.966 61.0441 16.246L62.4021 19.676L64.0401 15.014C64.1427 14.734 64.3574 14.594 64.6841 14.594Z" fill="white"/>
<path d="M140.054 11.186C140.241 11.1953 140.399 11.2653 140.53 11.396C140.661 11.5173 140.726 11.6713 140.726 11.858V20.328C140.726 20.5147 140.661 20.6733 140.53 20.804C140.409 20.9347 140.245 21 140.04 21C139.835 21 139.667 20.9393 139.536 20.818C139.405 20.6873 139.34 20.524 139.34 20.328V13.846L136.624 17.962C136.559 18.046 136.475 18.116 136.372 18.172C136.279 18.228 136.181 18.2513 136.078 18.242C135.985 18.2513 135.887 18.228 135.784 18.172C135.691 18.116 135.611 18.046 135.546 17.962L132.816 13.72V20.328C132.816 20.524 132.755 20.6873 132.634 20.818C132.522 20.9393 132.368 21 132.172 21C131.985 21 131.831 20.9393 131.71 20.818C131.598 20.6873 131.542 20.524 131.542 20.328V11.858C131.542 11.6807 131.607 11.5267 131.738 11.396C131.869 11.256 132.032 11.186 132.228 11.186C132.34 11.186 132.447 11.214 132.55 11.27C132.662 11.326 132.751 11.4007 132.816 11.494L136.134 16.52L139.494 11.494C139.643 11.2887 139.83 11.186 140.054 11.186ZM149.326 17.052C149.316 17.22 149.246 17.3647 149.116 17.486C148.985 17.598 148.831 17.654 148.654 17.654H143.726C143.791 18.3353 144.048 18.8813 144.496 19.292C144.953 19.7027 145.508 19.908 146.162 19.908C146.61 19.908 146.974 19.8427 147.254 19.712C147.534 19.5813 147.781 19.4133 147.996 19.208C148.136 19.124 148.271 19.082 148.402 19.082C148.56 19.082 148.691 19.138 148.794 19.25C148.906 19.362 148.962 19.4927 148.962 19.642C148.962 19.838 148.868 20.0153 148.682 20.174C148.411 20.4447 148.052 20.6733 147.604 20.86C147.156 21.0467 146.698 21.14 146.232 21.14C145.476 21.14 144.808 20.9813 144.23 20.664C143.66 20.3467 143.217 19.9033 142.9 19.334C142.592 18.7647 142.438 18.1207 142.438 17.402C142.438 16.618 142.596 15.932 142.914 15.344C143.24 14.7467 143.665 14.2893 144.188 13.972C144.72 13.6547 145.289 13.496 145.896 13.496C146.493 13.496 147.053 13.65 147.576 13.958C148.098 14.266 148.518 14.6907 148.836 15.232C149.153 15.7733 149.316 16.38 149.326 17.052ZM145.896 14.728C145.373 14.728 144.92 14.8773 144.538 15.176C144.155 15.4653 143.903 15.918 143.782 16.534H147.912V16.422C147.865 15.9273 147.641 15.5213 147.24 15.204C146.848 14.8867 146.4 14.728 145.896 14.728ZM145.868 13.146C145.793 13.146 145.714 13.1133 145.63 13.048C145.546 12.9827 145.508 12.894 145.518 12.782C145.518 12.7073 145.546 12.6233 145.602 12.53L146.428 11.144C146.502 11.0133 146.591 10.906 146.694 10.822C146.806 10.738 146.932 10.696 147.072 10.696C147.277 10.696 147.431 10.752 147.534 10.864C147.646 10.9667 147.697 11.1067 147.688 11.284C147.688 11.452 147.618 11.6153 147.478 11.774L146.428 12.922C146.278 13.0713 146.092 13.146 145.868 13.146ZM156.82 10.64C157.016 10.64 157.175 10.7053 157.296 10.836C157.427 10.9573 157.492 11.116 157.492 11.312V20.328C157.492 20.5147 157.427 20.6733 157.296 20.804C157.175 20.9347 157.016 21 156.82 21C156.624 21 156.465 20.9393 156.344 20.818C156.223 20.6873 156.162 20.524 156.162 20.328V19.936C155.929 20.272 155.597 20.5567 155.168 20.79C154.748 21.0233 154.295 21.14 153.81 21.14C153.175 21.14 152.601 20.9767 152.088 20.65C151.575 20.3233 151.169 19.8707 150.87 19.292C150.571 18.704 150.422 18.046 150.422 17.318C150.422 16.59 150.567 15.9367 150.856 15.358C151.155 14.77 151.561 14.3127 152.074 13.986C152.587 13.6593 153.152 13.496 153.768 13.496C154.263 13.496 154.72 13.5987 155.14 13.804C155.56 14.0093 155.901 14.2753 156.162 14.602V11.312C156.162 11.116 156.223 10.9573 156.344 10.836C156.465 10.7053 156.624 10.64 156.82 10.64ZM153.964 19.908C154.403 19.908 154.79 19.796 155.126 19.572C155.471 19.348 155.737 19.04 155.924 18.648C156.12 18.256 156.218 17.8127 156.218 17.318C156.218 16.8327 156.12 16.394 155.924 16.002C155.737 15.6007 155.471 15.288 155.126 15.064C154.79 14.84 154.403 14.728 153.964 14.728C153.525 14.728 153.133 14.84 152.788 15.064C152.452 15.288 152.186 15.6007 151.99 16.002C151.803 16.394 151.71 16.8327 151.71 17.318C151.71 17.8127 151.803 18.256 151.99 18.648C152.186 19.04 152.452 19.348 152.788 19.572C153.133 19.796 153.525 19.908 153.964 19.908ZM160.73 20.328C160.73 20.5147 160.664 20.6733 160.534 20.804C160.412 20.9347 160.254 21 160.058 21C159.871 21 159.712 20.9347 159.582 20.804C159.46 20.6733 159.4 20.5147 159.4 20.328V14.266C159.4 14.0793 159.46 13.9207 159.582 13.79C159.712 13.6593 159.871 13.594 160.058 13.594C160.254 13.594 160.412 13.6593 160.534 13.79C160.664 13.9207 160.73 14.0793 160.73 14.266V20.328ZM160.058 12.67C159.787 12.67 159.591 12.6233 159.47 12.53C159.358 12.4273 159.302 12.2687 159.302 12.054V11.83C159.302 11.606 159.362 11.4473 159.484 11.354C159.614 11.2607 159.81 11.214 160.072 11.214C160.333 11.214 160.52 11.2653 160.632 11.368C160.753 11.4613 160.814 11.6153 160.814 11.83V12.054C160.814 12.278 160.753 12.4367 160.632 12.53C160.51 12.6233 160.319 12.67 160.058 12.67ZM168.101 13.664C168.297 13.664 168.456 13.7293 168.577 13.86C168.708 13.9907 168.773 14.1493 168.773 14.336V18.06C168.773 19.0307 168.503 19.7867 167.961 20.328C167.429 20.86 166.673 21.126 165.693 21.126C164.723 21.126 163.971 20.86 163.439 20.328C162.907 19.7867 162.641 19.0307 162.641 18.06V14.336C162.641 14.1493 162.702 13.9907 162.823 13.86C162.954 13.7293 163.113 13.664 163.299 13.664C163.495 13.664 163.654 13.7293 163.775 13.86C163.906 13.9907 163.971 14.1493 163.971 14.336V18.06C163.971 19.2827 164.545 19.894 165.693 19.894C166.263 19.894 166.697 19.74 166.995 19.432C167.294 19.124 167.443 18.6667 167.443 18.06V14.336C167.443 14.1493 167.504 13.9907 167.625 13.86C167.756 13.7293 167.915 13.664 168.101 13.664ZM179.177 13.538C180.81 13.538 181.627 14.5553 181.627 16.59V20.328C181.627 20.524 181.566 20.6873 181.445 20.818C181.323 20.9393 181.165 21 180.969 21C180.773 21 180.609 20.9347 180.479 20.804C180.357 20.6733 180.297 20.5147 180.297 20.328V16.604C180.297 15.3813 179.783 14.77 178.757 14.77C178.393 14.77 178.061 14.854 177.763 15.022C177.473 15.1807 177.245 15.4 177.077 15.68C176.918 15.96 176.839 16.268 176.839 16.604V20.328C176.839 20.5147 176.773 20.6733 176.643 20.804C176.521 20.9347 176.363 21 176.167 21C175.971 21 175.812 20.9393 175.691 20.818C175.569 20.6873 175.509 20.524 175.509 20.328V16.59C175.509 16.0393 175.392 15.6007 175.159 15.274C174.925 14.938 174.538 14.77 173.997 14.77C173.446 14.77 172.989 14.9473 172.625 15.302C172.27 15.6473 172.093 16.0767 172.093 16.59V20.328C172.093 20.5147 172.027 20.6733 171.897 20.804C171.775 20.9347 171.617 21 171.421 21C171.225 21 171.066 20.9393 170.945 20.818C170.823 20.6873 170.763 20.524 170.763 20.328V14.336C170.763 14.1493 170.823 13.9907 170.945 13.86C171.075 13.7293 171.234 13.664 171.421 13.664C171.617 13.664 171.775 13.7293 171.897 13.86C172.027 13.9907 172.093 14.1493 172.093 14.336V14.826C172.335 14.462 172.657 14.1587 173.059 13.916C173.469 13.664 173.913 13.538 174.389 13.538C175.546 13.538 176.297 14.0513 176.643 15.078C176.848 14.686 177.189 14.3313 177.665 14.014C178.141 13.6967 178.645 13.538 179.177 13.538Z" fill="white"/>
<path d="M250.066 13.538C251.709 13.538 252.53 14.5553 252.53 16.59V20.328C252.53 20.5147 252.465 20.6733 252.334 20.804C252.213 20.9347 252.054 21 251.858 21C251.671 21 251.513 20.9347 251.382 20.804C251.261 20.6733 251.2 20.5147 251.2 20.328V16.59C251.2 15.3767 250.687 14.77 249.66 14.77C249.109 14.77 248.652 14.9473 248.288 15.302C247.924 15.6473 247.742 16.0767 247.742 16.59V20.328C247.742 20.5147 247.677 20.6733 247.546 20.804C247.425 20.9347 247.266 21 247.07 21C246.874 21 246.715 20.9393 246.594 20.818C246.473 20.6873 246.412 20.524 246.412 20.328V11.312C246.412 11.1253 246.473 10.9667 246.594 10.836C246.725 10.7053 246.883 10.64 247.07 10.64C247.266 10.64 247.425 10.7053 247.546 10.836C247.677 10.9667 247.742 11.1253 247.742 11.312V14.854C247.975 14.49 248.302 14.182 248.722 13.93C249.142 13.6687 249.59 13.538 250.066 13.538ZM255.779 20.328C255.779 20.5147 255.714 20.6733 255.583 20.804C255.462 20.9347 255.303 21 255.107 21C254.921 21 254.762 20.9347 254.631 20.804C254.51 20.6733 254.449 20.5147 254.449 20.328V14.266C254.449 14.0793 254.51 13.9207 254.631 13.79C254.762 13.6593 254.921 13.594 255.107 13.594C255.303 13.594 255.462 13.6593 255.583 13.79C255.714 13.9207 255.779 14.0793 255.779 14.266V20.328ZM255.107 12.67C254.837 12.67 254.641 12.6233 254.519 12.53C254.407 12.4273 254.351 12.2687 254.351 12.054V11.83C254.351 11.606 254.412 11.4473 254.533 11.354C254.664 11.2607 254.86 11.214 255.121 11.214C255.383 11.214 255.569 11.2653 255.681 11.368C255.803 11.4613 255.863 11.6153 255.863 11.83V12.054C255.863 12.278 255.803 12.4367 255.681 12.53C255.56 12.6233 255.369 12.67 255.107 12.67ZM263.823 13.566C264.019 13.566 264.178 13.6313 264.299 13.762C264.43 13.8833 264.495 14.0467 264.495 14.252V20.412C264.495 21.168 264.332 21.798 264.005 22.302C263.688 22.8153 263.254 23.1933 262.703 23.436C262.153 23.6787 261.532 23.8 260.841 23.8C260.468 23.8 260.029 23.7347 259.525 23.604C259.031 23.4733 258.713 23.338 258.573 23.198C258.284 23.0487 258.139 22.862 258.139 22.638C258.139 22.582 258.158 22.5073 258.195 22.414C258.298 22.1807 258.471 22.064 258.713 22.064C258.835 22.064 258.965 22.092 259.105 22.148C259.852 22.4373 260.435 22.582 260.855 22.582C261.602 22.582 262.171 22.4 262.563 22.036C262.965 21.6813 263.165 21.1913 263.165 20.566V19.81C262.969 20.174 262.638 20.4867 262.171 20.748C261.714 21.0093 261.229 21.14 260.715 21.14C260.071 21.14 259.483 20.9767 258.951 20.65C258.419 20.3233 257.999 19.8707 257.691 19.292C257.393 18.704 257.243 18.046 257.243 17.318C257.243 16.59 257.393 15.9367 257.691 15.358C257.999 14.77 258.415 14.3127 258.937 13.986C259.469 13.6593 260.053 13.496 260.687 13.496C261.201 13.496 261.677 13.6127 262.115 13.846C262.563 14.0793 262.913 14.364 263.165 14.7V14.252C263.165 14.056 263.226 13.8927 263.347 13.762C263.469 13.6313 263.627 13.566 263.823 13.566ZM260.869 19.908C261.327 19.908 261.733 19.8007 262.087 19.586C262.442 19.362 262.717 19.054 262.913 18.662C263.119 18.2607 263.221 17.8127 263.221 17.318C263.221 16.8233 263.119 16.38 262.913 15.988C262.717 15.596 262.442 15.288 262.087 15.064C261.733 14.84 261.327 14.728 260.869 14.728C260.421 14.728 260.02 14.84 259.665 15.064C259.311 15.288 259.031 15.6007 258.825 16.002C258.629 16.394 258.531 16.8327 258.531 17.318C258.531 17.8033 258.629 18.2467 258.825 18.648C259.031 19.04 259.311 19.348 259.665 19.572C260.02 19.796 260.421 19.908 260.869 19.908ZM270.123 13.538C271.765 13.538 272.587 14.5553 272.587 16.59V20.328C272.587 20.5147 272.521 20.6733 272.391 20.804C272.269 20.9347 272.111 21 271.915 21C271.728 21 271.569 20.9347 271.439 20.804C271.317 20.6733 271.257 20.5147 271.257 20.328V16.59C271.257 15.3767 270.743 14.77 269.717 14.77C269.166 14.77 268.709 14.9473 268.345 15.302C267.981 15.6473 267.799 16.0767 267.799 16.59V20.328C267.799 20.5147 267.733 20.6733 267.603 20.804C267.481 20.9347 267.323 21 267.127 21C266.931 21 266.772 20.9393 266.651 20.818C266.529 20.6873 266.469 20.524 266.469 20.328V11.312C266.469 11.1253 266.529 10.9667 266.651 10.836C266.781 10.7053 266.94 10.64 267.127 10.64C267.323 10.64 267.481 10.7053 267.603 10.836C267.733 10.9667 267.799 11.1253 267.799 11.312V14.854C268.032 14.49 268.359 14.182 268.779 13.93C269.199 13.6687 269.647 13.538 270.123 13.538Z" fill="white"/>
<defs>
<linearGradient id="paint0_linear" x1="85.9139" y1="20.6228" x2="84.2366" y2="21.4938" gradientUnits="userSpaceOnUse">
<stop stop-color="#433FF5"/>
<stop offset="1" stop-opacity="0"/>
</linearGradient>
<linearGradient id="paint1_linear" x1="287.914" y1="19.0061" x2="286.236" y2="18.1351" gradientUnits="userSpaceOnUse">
<stop stop-color="#433FF5"/>
<stop offset="1" stop-opacity="0"/>
</linearGradient>
<linearGradient id="paint2_linear" x1="192.914" y1="19.6229" x2="191.237" y2="20.4938" gradientUnits="userSpaceOnUse">
<stop stop-color="#433FF5"/>
<stop offset="1" stop-opacity="0"/>
</linearGradient>
</defs>
</svg>
