<svg width="873" height="425" viewBox="0 0 873 425" fill="none" xmlns="http://www.w3.org/2000/svg">
<path d="M331.803 212.474C335.238 220.61 340.662 227.48 348.074 233.085C355.487 238.689 363.984 241.491 373.566 241.491C383.871 241.491 392.459 238.328 399.329 232C406.199 225.672 409.634 217.536 409.634 207.593C409.634 200.361 407.736 194.666 403.939 190.508C400.323 186.169 395.08 182.192 388.21 178.576L376.007 172.61C359.012 166.101 346.99 157.242 339.939 146.033C337.046 141.152 335.6 135.999 335.6 130.575C335.6 119.908 339.306 111.321 346.718 104.812C354.312 98.123 363.713 94.7783 374.922 94.7783C384.323 94.7783 392.278 97.1286 398.787 101.829C405.476 106.349 408.821 112.586 408.821 120.541C408.821 126.327 407.013 130.937 403.397 134.372C399.962 137.807 395.442 139.524 389.837 139.524C389.657 139.524 389.295 139.524 388.753 139.524C388.391 139.344 388.12 139.253 387.939 139.253L388.753 128.135C389.114 128.315 389.657 128.406 390.38 128.406C392.188 128.406 393.724 127.502 394.99 125.694C396.256 123.886 396.888 121.988 396.888 119.999C396.888 115.66 394.538 112.406 389.837 110.236C385.318 107.886 380.346 106.711 374.922 106.711C367.329 106.711 360.82 108.88 355.396 113.219C350.153 117.558 347.532 123.344 347.532 130.575C347.532 137.084 351.329 143.231 358.922 149.016C362.718 152.09 367.69 155.163 373.837 158.236C379.984 161.129 385.589 163.841 390.651 166.372C395.713 168.722 400.685 171.615 405.566 175.05C410.629 178.485 414.516 183.005 417.227 188.61C420.12 194.033 421.566 200.542 421.566 208.135C421.566 221.152 416.956 232 407.736 240.678C398.515 249.175 387.216 253.424 373.837 253.424C356.662 253.424 341.927 246.282 329.633 232C325.837 227.48 322.854 222.418 320.684 216.813L331.803 212.474ZM462.859 111.863C459.967 111.863 457.435 112.948 455.266 115.117C453.277 117.106 452.283 119.547 452.283 122.44H440.079C440.079 112.677 444.69 105.626 453.91 101.287C456.622 100.202 459.515 99.6597 462.588 99.6597H512.487C525.504 99.6597 535.628 103.818 542.86 112.134C550.272 120.451 553.979 131.389 553.979 144.948C553.979 159.954 549.64 171.615 540.962 179.932C532.284 188.067 520.17 192.135 504.622 192.135C498.656 192.135 493.684 191.774 489.707 191.05V179.118L509.775 180.203C519.538 180.203 527.221 176.858 532.826 170.169C538.43 163.479 541.233 154.982 541.233 144.677C541.233 134.733 538.34 126.869 532.555 121.084C526.95 115.117 519.176 112.044 509.232 111.863H480.758V248.271H467.469V111.863H462.859ZM594.74 111.863C591.847 111.863 589.406 112.858 587.417 114.846C585.429 116.835 584.434 119.366 584.434 122.44H572.231C572.231 112.677 576.841 105.626 586.062 101.287C588.773 100.202 591.666 99.6597 594.74 99.6597H694.537V111.863H610.74V163.389H668.503V175.864H610.74V235.525H694.537V248H597.451V111.863H594.74ZM793.678 240.949C804.706 240.949 814.74 238.508 823.78 233.627C832.819 228.565 839.961 222.147 845.204 214.373L854.966 221.152C840.503 242.305 820.254 252.881 794.22 252.881C772.163 252.881 753.994 245.469 739.711 230.644C725.429 215.819 718.287 197.288 718.287 175.05C718.287 152.451 725.609 133.287 740.254 117.558C755.079 101.829 773.519 93.9647 795.576 93.9647C808.955 93.9647 820.525 96.767 830.288 102.372C840.232 107.795 845.204 115.841 845.204 126.507C845.204 132.293 843.396 137.084 839.78 140.88C836.345 144.677 831.825 146.575 826.22 146.575C822.062 146.575 818.085 145.219 814.288 142.508L821.61 133.287C823.237 134.372 824.774 134.914 826.22 134.914C828.39 134.914 830.107 134.101 831.373 132.474C832.819 130.846 833.543 128.858 833.543 126.507C833.543 119.637 829.565 114.485 821.61 111.05C813.655 107.615 805.068 105.897 795.847 105.897C777.226 105.897 761.587 112.677 748.932 126.236C736.276 139.615 729.948 155.796 729.948 174.779C729.948 193.581 735.915 209.31 747.847 221.966C759.96 234.621 775.237 240.949 793.678 240.949Z" fill="#F9FEFF"/>
<path d="M478.593 290.281C479.913 290.281 480.998 290.659 481.847 291.413C482.696 292.168 483.12 293.206 483.12 294.526L482.837 296.366L451.568 386.919C451.285 387.768 450.766 388.428 450.012 388.9C449.351 389.371 448.597 389.607 447.748 389.607C445.578 389.607 444.163 388.711 443.503 386.919L419.025 326.503L394.548 386.919C393.699 388.711 392.284 389.607 390.303 389.607C389.454 389.607 388.652 389.371 387.898 388.9C387.237 388.428 386.813 387.768 386.624 386.919L355.355 296.366C355.072 295.8 354.931 295.234 354.931 294.668C354.931 293.347 355.402 292.309 356.345 291.555C357.383 290.706 358.468 290.281 359.6 290.281C360.543 290.281 361.392 290.517 362.147 290.989C362.901 291.461 363.42 292.121 363.703 292.97L391.435 373.902L415.205 314.618C416.054 312.731 417.375 311.835 419.167 311.929C420.11 311.835 420.912 312.071 421.572 312.637C422.327 313.108 422.893 313.769 423.27 314.618L446.899 373.902L474.348 292.97C475.103 291.178 476.518 290.281 478.593 290.281ZM571.319 383.948C571.508 384.702 571.602 385.268 571.602 385.646C571.602 386.872 571.178 387.862 570.329 388.617C569.48 389.371 568.49 389.749 567.358 389.749C566.414 389.749 565.565 389.513 564.811 389.041C564.151 388.475 563.632 387.768 563.254 386.919L552.643 361.026H506.659L496.188 386.919C495.434 388.806 494.16 389.749 492.368 389.749C491.047 389.749 490.057 389.419 489.397 388.758C488.736 388.098 488.359 387.202 488.265 386.07V385.646C488.265 385.08 488.312 384.655 488.406 384.372L525.76 292.97C526.514 291.083 527.929 290.14 530.004 290.14C530.948 290.14 531.749 290.423 532.41 290.989C533.164 291.461 533.73 292.121 534.108 292.97L571.319 383.948ZM549.247 352.678L529.438 304.289L509.913 352.678H549.247ZM645.128 290.564C646.355 290.564 647.345 290.942 648.1 291.696C648.949 292.451 649.373 293.441 649.373 294.668C649.373 295.894 648.949 296.884 648.1 297.639C647.345 298.299 646.355 298.629 645.128 298.629H615.84V385.363C615.84 386.589 615.416 387.626 614.567 388.475C613.718 389.23 612.68 389.607 611.454 389.607C610.133 389.607 609.049 389.23 608.2 388.475C607.445 387.626 607.068 386.589 607.068 385.363V298.629H577.779C576.553 298.629 575.515 298.252 574.666 297.497C573.912 296.743 573.535 295.752 573.535 294.526C573.535 293.394 573.912 292.451 574.666 291.696C575.515 290.942 576.553 290.564 577.779 290.564H645.128ZM723.587 381.259C724.813 381.259 725.803 381.684 726.558 382.533C727.407 383.382 727.831 384.372 727.831 385.504C727.831 386.73 727.407 387.721 726.558 388.475C725.803 389.23 724.813 389.607 723.587 389.607H671.66C670.434 389.607 669.396 389.23 668.547 388.475C667.793 387.626 667.415 386.589 667.415 385.363V294.809C667.415 293.583 667.793 292.592 668.547 291.838C669.396 290.989 670.434 290.564 671.66 290.564H723.587C724.813 290.564 725.803 290.989 726.558 291.838C727.407 292.592 727.831 293.583 727.831 294.809C727.831 296.035 727.407 297.026 726.558 297.78C725.803 298.535 724.813 298.912 723.587 298.912H676.329V334.426H717.22C718.446 334.426 719.436 334.851 720.191 335.7C721.04 336.454 721.464 337.445 721.464 338.671C721.464 339.897 721.04 340.888 720.191 341.642C719.436 342.397 718.446 342.774 717.22 342.774H676.329V381.259H723.587ZM820.134 381.967C821.549 382.91 822.256 384.089 822.256 385.504C822.256 385.976 822.067 386.589 821.69 387.343C821.313 388.004 820.794 388.523 820.134 388.9C819.473 389.277 818.766 389.466 818.011 389.466C817.068 389.466 816.266 389.277 815.606 388.9C812.965 387.391 810.842 384.938 809.239 381.542C807.635 378.147 806.834 372.723 806.834 365.271C806.834 358.668 804.994 354.046 801.316 351.405C797.637 348.67 793.251 347.302 788.157 347.302H756.746V385.363C756.746 386.589 756.369 387.626 755.614 388.475C754.86 389.23 753.869 389.607 752.643 389.607C751.322 389.607 750.191 389.23 749.247 388.475C748.304 387.626 747.832 386.589 747.832 385.363V294.809C747.832 293.583 748.21 292.592 748.964 291.838C749.813 290.989 750.851 290.564 752.077 290.564H790.279C795.656 290.564 800.467 291.744 804.711 294.102C808.956 296.366 812.257 299.525 814.616 303.581C817.068 307.638 818.294 312.212 818.294 317.306C818.294 323.343 816.691 328.672 813.484 333.294C810.371 337.822 806.268 340.935 801.174 342.633C805.324 344.236 808.72 346.972 811.361 350.839C814.002 354.612 815.37 359.234 815.465 364.705C815.559 370.553 815.936 374.657 816.596 377.015C817.351 379.373 818.53 381.024 820.134 381.967ZM790.704 339.52C794.005 339.237 797.071 338.152 799.901 336.266C802.73 334.379 804.994 331.832 806.692 328.625C808.39 325.418 809.239 321.739 809.239 317.589C809.239 312.212 807.4 307.779 803.721 304.289C800.136 300.705 795.42 298.912 789.572 298.912H756.746V339.52H790.704Z" fill="#F9FEFF"/>
<path d="M157.34 163.771L150.442 167.929C150.51 168.043 150.582 168.155 150.656 168.266L157.34 163.771ZM141.566 389.639L135.208 394.584C137.478 397.502 141.442 398.501 144.822 397.006L141.566 389.639ZM122.082 351.468C119.351 347.957 114.291 347.324 110.779 350.055C107.268 352.786 106.635 357.847 109.366 361.358L122.082 351.468ZM145.825 73.5831C147.73 69.5628 146.014 64.76 141.994 62.8557C137.974 60.9513 133.171 62.6666 131.267 66.6869L145.825 73.5831ZM150.656 168.266C182.957 216.298 203.804 259.595 204.706 295.784C205.15 313.569 200.772 329.56 190.502 343.779C180.155 358.104 163.432 371.17 138.311 382.272L144.822 397.006C171.721 385.119 191.076 370.497 203.561 353.211C216.124 335.819 221.332 316.277 220.811 295.383C219.784 254.213 196.497 207.566 164.024 159.276L150.656 168.266ZM147.924 384.694L122.082 351.468L109.366 361.358L135.208 394.584L147.924 384.694ZM164.239 159.614C149.035 134.384 142.016 118.449 139.897 106.147C137.891 94.4932 140.181 85.4993 145.825 73.5831L131.267 66.6869C124.829 80.2773 121.246 92.7627 124.022 108.881C126.686 124.351 135.105 142.48 150.442 167.929L164.239 159.614Z" fill="#CDE4EB"/>
<path d="M157.34 163.771L150.442 167.929C150.51 168.043 150.582 168.155 150.656 168.266L157.34 163.771ZM141.566 389.639L135.208 394.584C137.478 397.502 141.442 398.501 144.822 397.006L141.566 389.639ZM122.082 351.468C119.351 347.957 114.291 347.324 110.779 350.055C107.268 352.786 106.635 357.847 109.366 361.358L122.082 351.468ZM145.825 73.5831C147.73 69.5628 146.014 64.76 141.994 62.8557C137.974 60.9513 133.171 62.6666 131.267 66.6869L145.825 73.5831ZM150.656 168.266C182.957 216.298 203.804 259.595 204.706 295.784C205.15 313.569 200.772 329.56 190.502 343.779C180.155 358.104 163.432 371.17 138.311 382.272L144.822 397.006C171.721 385.119 191.076 370.497 203.561 353.211C216.124 335.819 221.332 316.277 220.811 295.383C219.784 254.213 196.497 207.566 164.024 159.276L150.656 168.266ZM147.924 384.694L122.082 351.468L109.366 361.358L135.208 394.584L147.924 384.694ZM164.239 159.614C149.035 134.384 142.016 118.449 139.897 106.147C137.891 94.4932 140.181 85.4993 145.825 73.5831L131.267 66.6869C124.829 80.2773 121.246 92.7627 124.022 108.881C126.686 124.351 135.105 142.48 150.442 167.929L164.239 159.614Z" fill="url(#paint0_linear)" fill-opacity="0.2"/>
<path d="M126.492 77.9278C114.632 98.8382 95.4018 152.105 110.355 174.531M110.355 174.531C111.482 176.221 112.711 178 114.047 179.881C169.088 257.408 164.557 296.126 160.362 315.133C158.537 323.4 152.307 346.346 116.396 356.078L80.2249 389.64C-23.8152 343.661 -0.322293 260.093 64.4511 163.772C70.9147 153.815 128.852 77.5153 133.684 66.2386M110.355 174.531C73.5996 218.602 16.1156 313.925 80.2249 342.654" stroke="#CDE4EB" stroke-width="16.1094" stroke-linecap="round"/>
<path d="M87.1902 292.229C87.1903 287.781 83.5842 284.174 79.1357 284.174C74.6872 284.174 71.0809 287.78 71.0808 292.229L87.1902 292.229ZM145.151 298.879C146.671 294.698 144.515 290.077 140.334 288.556C136.153 287.036 131.532 289.193 130.012 293.373L145.151 298.879ZM71.0808 292.229C71.0803 311.656 84.5161 326.681 100.992 329.849C109.326 331.452 118.286 329.976 126.296 324.715C134.263 319.481 140.8 310.843 145.151 298.879L130.012 293.373C126.569 302.839 121.905 308.325 117.452 311.25C113.041 314.147 108.364 314.862 104.034 314.03C95.1839 312.328 87.1899 303.974 87.1902 292.229L71.0808 292.229Z" fill="url(#paint1_linear)" fill-opacity="0.2"/>
<path d="M87.1902 292.229C87.1903 287.781 83.5842 284.174 79.1357 284.174C74.6872 284.174 71.0809 287.78 71.0808 292.229L87.1902 292.229ZM145.151 298.879C146.671 294.698 144.515 290.077 140.334 288.556C136.153 287.036 131.532 289.193 130.012 293.373L145.151 298.879ZM71.0808 292.229C71.0803 311.656 84.5161 326.681 100.992 329.849C109.326 331.452 118.286 329.976 126.296 324.715C134.263 319.481 140.8 310.843 145.151 298.879L130.012 293.373C126.569 302.839 121.905 308.325 117.452 311.25C113.041 314.147 108.364 314.862 104.034 314.03C95.1839 312.328 87.1899 303.974 87.1902 292.229L71.0808 292.229Z" fill="#C9DBE0"/>
<defs>
<linearGradient id="paint0_linear" x1="164.258" y1="163.771" x2="164.258" y2="389.639" gradientUnits="userSpaceOnUse">
<stop stop-color="#EDEDF0"/>
<stop offset="1" stop-color="white" stop-opacity="0"/>
</linearGradient>
<linearGradient id="paint1_linear" x1="103.741" y1="309.082" x2="85.8619" y2="318.366" gradientUnits="userSpaceOnUse">
<stop stop-color="white"/>
<stop offset="1" stop-color="white" stop-opacity="0"/>
</linearGradient>
</defs>
</svg>
